<svg xmlns="http://www.w3.org/2000/svg" width="512" height="512" viewBox="0 0 512 512" role="img" aria-labelledby="title description">
  <title id="title">Our Pets</title>
  <desc id="description">A warm desktop pet with a tiny coding window.</desc>
  <defs>
    <linearGradient id="background" x1="72" y1="52" x2="448" y2="472" gradientUnits="userSpaceOnUse">
      <stop stop-color="#6C75FF"/>
      <stop offset="1" stop-color="#3D43A5"/>
    </linearGradient>
    <linearGradient id="face" x1="177" y1="168" x2="347" y2="370" gradientUnits="userSpaceOnUse">
      <stop stop-color="#FFF9EC"/>
      <stop offset="1" stop-color="#FCE4BF"/>
    </linearGradient>
    <filter id="shadow" x="-20%" y="-20%" width="140%" height="150%">
      <feDropShadow dx="0" dy="16" stdDeviation="13" flood-color="#181B58" flood-opacity=".32"/>
    </filter>
  </defs>
  <rect x="28" y="28" width="456" height="456" rx="132" fill="url(#background)"/>
  <path d="M111 151c0-22 18-40 40-40h210c22 0 40 18 40 40v198c0 22-18 40-40 40H151c-22 0-40-18-40-40V151Z" fill="#20245D" fill-opacity=".36"/>
  <path d="M111 166c0-22 18-40 40-40h210c22 0 40 18 40 40v32H111v-32Z" fill="#FFF9EC" fill-opacity=".18"/>
  <circle cx="145" cy="162" r="8" fill="#FFC96B"/>
  <circle cx="169" cy="162" r="8" fill="#FF8A78"/>
  <circle cx="193" cy="162" r="8" fill="#A6F4D1"/>
  <g filter="url(#shadow)">
    <path d="M176 230 153 175c-4-10 8-18 17-12l54 34c10-4 20-6 32-6s22 2 32 6l54-34c9-6 21 2 17 12l-23 55c13 19 21 42 21 67 0 68-50 118-112 118s-112-50-112-118c0-25 8-48 21-67Z" fill="url(#face)" stroke="#FFFDF8" stroke-width="12" stroke-linejoin="round"/>
    <path d="M202 281c0-14 11-25 25-25s25 11 25 25-11 25-25 25-25-11-25-25Zm58 0c0-14 11-25 25-25s25 11 25 25-11 25-25 25-25-11-25-25Z" fill="#273064"/>
    <circle cx="220" cy="273" r="7" fill="#A6F4D1"/>
    <circle cx="278" cy="273" r="7" fill="#A6F4D1"/>
    <path d="M248 311c5 0 10 4 10 9 0 7-6 12-10 16-4-4-10-9-10-16 0-5 5-9 10-9Z" fill="#FF8A78"/>
    <path d="M222 348c12 11 25 16 40 16 15 0 28-5 40-16" fill="none" stroke="#D87A68" stroke-width="10" stroke-linecap="round"/>
  </g>
  <path d="M353 333h39c14 0 25 11 25 25v33c0 14-11 25-25 25h-57l18-20h-18c-14 0-25-11-25-25v-13c0-14 11-25 25-25h18Z" fill="#FFBD70"/>
  <path d="m350 368 12 10-12 10m27 0h16" fill="none" stroke="#273064" stroke-width="9" stroke-linecap="round" stroke-linejoin="round"/>
  <path d="m110 352 12-12 12 12 12-12" fill="none" stroke="#A6F4D1" stroke-width="10" stroke-linecap="round" stroke-linejoin="round"/>
</svg>
